<?xml version="1.0" encoding="UTF-8" standalone="no"?>
<!-- Created with Inkscape (http://www.inkscape.org/) -->

<svg
   xmlns:dc="http://purl.org/dc/elements/1.1/"
   xmlns:cc="http://creativecommons.org/ns#"
   xmlns:rdf="http://www.w3.org/1999/02/22-rdf-syntax-ns#"
   xmlns:svg="http://www.w3.org/2000/svg"
   xmlns="http://www.w3.org/2000/svg"
   xmlns:sodipodi="http://sodipodi.sourceforge.net/DTD/sodipodi-0.dtd"
   xmlns:inkscape="http://www.inkscape.org/namespaces/inkscape"
   width="470.75211"
   height="365.39041"
   id="svg2"
   version="1.1"
   inkscape:version="0.48.4 r9939"
   sodipodi:docname="intersection.svg">
  <defs
     id="defs4" />
  <sodipodi:namedview
     id="base"
     pagecolor="#ffffff"
     bordercolor="#666666"
     borderopacity="1.0"
     inkscape:pageopacity="0.0"
     inkscape:pageshadow="2"
     inkscape:zoom="0.5"
     inkscape:cx="319.34738"
     inkscape:cy="50.177638"
     inkscape:document-units="px"
     inkscape:current-layer="layer1"
     showgrid="false"
     inkscape:window-width="1366"
     inkscape:window-height="744"
     inkscape:window-x="0"
     inkscape:window-y="24"
     inkscape:window-maximized="1"
     fit-margin-top="0"
     fit-margin-left="0"
     fit-margin-right="0"
     fit-margin-bottom="0" />
  <metadata
     id="metadata7">
    <rdf:RDF>
      <cc:Work
         rdf:about="">
        <dc:format>image/svg+xml</dc:format>
        <dc:type
           rdf:resource="http://purl.org/dc/dcmitype/StillImage" />
        <dc:title></dc:title>
      </cc:Work>
    </rdf:RDF>
  </metadata>
  <g
     inkscape:label="Layer 1"
     inkscape:groupmode="layer"
     id="layer1"
     transform="translate(-55.652622,-217.14942)">
    <g
       id="g3939">
      <path
         id="path2987"
         d="m 402.3125,218.65625 c -2.42827,0.58235 -4.73809,3.04961 -6.96875,5.53125 -0.33196,0.004 -0.66833,-0.002 -1,0 -1.56907,-0.15497 -2.28064,0.0457 -3.25,1.25 -2.05445,1.76974 -4.13846,3.43581 -6.4375,4.875 -3.26036,3.00686 -6.71848,5.80779 -10.0625,8.71875 -2.23808,1.86584 -4.93199,3.01221 -7.21875,4.84375 -3.5513,3.72079 2.83892,1.10835 4.25,0.21875 6.74945,-4.81534 13.6945,-9.16182 20.0625,-14.5 1.57111,-0.89791 3.48563,-2.97122 5.4375,-5.0625 0.21451,0.004 0.62423,-0.002 0.46875,0 0.52752,0.0833 1.53485,0.16093 1.59375,0.78125 0.0481,1.10936 -0.42127,1.81798 -1.125,2.6875 -4.19599,5.6492 -9.13528,10.62021 -14,15.6875 -8.08588,8.66534 -16.28306,17.22062 -24.375,25.875 -9.73746,11.92438 -19.04506,24.32751 -30.375,34.8125 -10.97378,9.21167 -22.53164,17.66567 -33.65625,26.6875 -4.75398,4.73454 -9.63097,9.85795 -13.40625,15.4375 -0.50256,0.74273 -2.57884,5.34569 -2.78125,5.78125 -4.13656,10.00258 -8.66608,19.92747 -15.0625,28.71875 -3.91157,5.4984 -7.76506,11.95344 -13.625,15.5625 -5.37505,2.62099 -9.44033,7.32605 -14,11.0625 -11.73563,10.34183 -24.11936,19.93577 -35.375,30.8125 -3.98873,4.15177 -7.27004,7.38434 -10.875,11.875 -6.70003,8.34617 -11.31899,18.02822 -17.375,26.8125 -4.08806,6.13102 -5.40851,8.45333 -10.0625,14.15625 -6.3485,7.77933 -13.71289,14.69218 -20.03125,22.5 -12.04046,13.49084 -24.36222,26.701 -35.46875,41 -9.309729,10.27289 -19.390364,19.78856 -31.9375,26.03125 l 1.9375,0.21875 c 12.517799,-6.28911 22.5845,-15.80676 31.875,-26.09375 11.08775,-14.31159 23.42949,-27.54245 35.46875,-41.03125 6.33522,-7.79817 13.69174,-14.70761 20.03125,-22.5 4.60028,-5.65458 6.01916,-8.0817 10.0625,-14.15625 6.05706,-8.7834 10.69725,-18.4732 17.40625,-26.8125 3.5937,-4.46697 6.87074,-7.71228 10.84375,-11.84375 11.27173,-10.85924 23.65697,-20.48602 35.40625,-30.8125 4.57466,-3.71537 8.67355,-8.45848 14.09375,-11 5.81709,-3.68446 9.61234,-10.14371 13.53125,-15.65625 6.39281,-8.80866 10.9307,-18.7771 15.09375,-28.78125 3.52894,-8.2122 9.87647,-14.89426 16.15625,-21.125 11.12688,-8.9985 22.66764,-17.44526 33.625,-26.65625 11.31694,-10.51833 20.63753,-22.92498 30.40625,-34.84375 8.11382,-8.62727 16.29174,-17.2145 24.375,-25.875 4.88793,-5.07192 9.83939,-10.0659 14.0625,-15.71875 0.75699,-0.90842 1.20265,-1.6779 1.15625,-2.84375 -0.0402,-0.7691 -1.00641,-0.90887 -1.625,-1.03125 -0.70999,-0.0506 -1.41307,-0.057 -2.125,-0.0625 1.77469,-1.89234 3.59232,-3.73448 5.28125,-4.65625 -0.10496,0.21817 0.229,0.51232 0.28125,0.78125 0.0739,0.37998 0.095,0.77032 0.125,1.15625 0.1327,1.70469 0.0665,3.49515 0.0625,5.1875 0.18694,5.89449 -0.7275,11.72333 -1.59375,17.53125 -0.0307,3.05503 -1.626,5.20725 -3.28125,7.65625 -1.47615,1.65089 -0.73257,0.89995 -2.21875,2.3125 l 1.96875,0.15625 c 1.48536,-1.43716 0.7438,-0.66116 2.21875,-2.34375 1.66328,-2.47211 3.25985,-4.67052 3.28125,-7.75 0.85381,-5.81836 1.74966,-11.66162 1.59375,-17.5625 0.003,-0.31952 0.1139,-6.98759 -0.4375,-7.3125 -0.24833,-0.14633 -0.50256,-0.2382 -0.78125,-0.3125 -0.01,-0.003 -0.0212,0.003 -0.0312,0 -0.52603,-0.13678 -1.07007,-0.23266 -1.59375,-0.375 z M 394.90625,224.5 c 0.0517,-0.007 0.10283,0.004 0.15625,0 -1.78648,1.99101 -3.53137,3.94111 -5.28125,4.90625 -4.07543,3.40255 -8.39837,6.39922 -12.75,9.375 3.19166,-2.76017 6.44985,-5.4345 9.59375,-8.25 2.30212,-1.4587 4.42908,-3.16144 6.46875,-4.96875 0.59244,-0.70831 1.13667,-0.97672 1.8125,-1.0625 z m -22.875,17.75 c -0.79266,0.54867 -1.58668,1.09774 -2.375,1.65625 -0.14648,0.0882 -0.29316,0.15784 -0.4375,0.25 0.0378,-0.0358 0.0912,-0.0724 0.125,-0.0937 0.85443,-0.67621 1.7652,-1.24718 2.6875,-1.8125 z"
         style="opacity:0.8;fill:none;stroke:#000000;stroke-width:3;stroke-linejoin:round;stroke-miterlimit:4;stroke-opacity:1;stroke-dasharray:none;stroke-dashoffset:23.17999964"
         inkscape:connector-curvature="0" />
      <path
         inkscape:connector-curvature="0"
         d="M 480.0161,579.24653 C 436.29443,532.93767 395.19632,484.11695 349.73072,439.4632 c -7.0739,-6.94758 -14.44058,-13.59064 -21.66087,-20.38596 -16.79059,-15.94422 -35.45843,-30.2341 -49.61054,-48.76372 -2.40802,-3.15285 -8.74117,-12.98649 -11.02941,-16.49408 -10.10482,-16.06729 -22.06427,-30.80974 -34.87389,-44.77187 -11.64333,-12.99479 -23.60805,-25.68379 -34.30063,-39.48769 -1.30595,-1.66223 -2.58482,-3.3461 -3.91786,-4.98668 -5.07311,-6.24355 -3.05447,-3.25784 -7.59268,-9.55835 -2.41404,-3.35146 -4.47499,-6.87941 -6.66926,-10.37022 4.49441,1.13439 -2.06344,-1.76809 -1.31055,-1.86026 0.7651,-0.0937 1.68661,-0.34245 2.30976,0.11125 0.14098,0.10265 3.43628,7.13018 3.84657,7.86077 4.60616,6.78777 3.99886,15.69825 3.45075,23.5242 -0.0178,-0.007 -1.01331,7.96851 -1.73716,7.81316 -0.78494,-0.16845 -1.71035,-0.49195 -2.08795,-1.20042 -0.45705,-0.85757 -0.0697,-1.94227 -0.10459,-2.9134 0.26856,-6.07294 -0.19928,-12.23624 0.35272,-18.29676 0.29778,-3.26942 1.24339,-7.39424 1.89779,-10.57907 0.96607,-4.80424 1.9364,-9.60786 2.95991,-14.40028 0.20483,-0.95911 0.53274,-2.48629 0.56591,-2.4774 0.67962,0.18223 1.23841,0.66835 1.85762,1.00252 -0.95037,3.23199 0.46197,5.59488 2.25384,8.13053 4.25721,2.72308 8.74624,5.31172 13.08643,8.04659 4.95771,2.88157 9.14287,6.95472 14.58895,8.90584 3.39458,1.99536 7.92622,2.29241 11.05735,4.67077 0.55402,1.44673 0.5519,0.70352 -0.13071,2.22581 -0.0865,0.11498 -1.71253,-1.10902 -1.62598,-1.224 l 0,0 c 0.053,0.14338 0.10606,0.28675 0.15908,0.43012 0.0599,0.0215 0.11981,0.043 0.17971,0.0644 -2.58927,-1.82024 -7.85599,-2.50853 -10.71572,-4.27702 -5.48825,-2.15813 -9.92355,-6.07165 -14.99997,-9.01163 -3.34234,-2.12192 -6.60264,-4.54007 -10.02538,-6.52222 -2.1155,-1.22512 0.14603,0.75403 -2.18572,-1.09288 -0.43282,-0.34283 -0.79986,-0.76137 -1.19979,-1.14205 -2.07284,-2.93618 -3.60622,-5.92479 -2.44899,-9.60814 0.72228,-0.10953 1.44015,-0.40345 2.16684,-0.32859 0.0756,0.008 -0.14836,1.38338 -0.35954,2.58709 -0.84797,4.83356 -1.83939,9.64095 -2.84281,14.44406 -0.59446,2.80446 -1.63701,7.2879 -1.91248,10.20745 -0.56945,6.03511 -0.0224,12.17888 -0.48734,18.22394 -0.0452,2.74255 0.78611,2.75097 -1.84045,3.26043 -0.11232,0.0218 0.13803,-0.18746 0.17319,-0.29633 0.13568,-0.42011 0.24472,-0.84915 0.33623,-1.28104 0.47354,-2.23494 0.49184,-3.00762 0.78269,-5.4999 0.50762,-7.34145 1.19616,-16.11103 -3.16565,-22.43798 -0.5614,-1.01469 -3.83105,-7.01687 -3.77825,-8.02392 0.0432,-0.82437 0.63046,-1.58642 1.23886,-2.14436 0.64541,-0.59187 1.20426,4.29989 1.64267,2.0502 5.6459,8.56211 11.49801,16.90836 18.30081,24.62351 10.81154,13.63944 22.7771,26.26124 34.37453,39.22523 12.86886,14.07089 24.85053,28.95616 35.05102,45.10031 2.48969,3.76503 8.30574,12.717 11.01424,16.15105 14.39988,18.25727 33.43129,32.04317 50.36739,47.72679 7.37072,6.73439 14.89848,13.30084 22.11217,20.20319 46.06729,44.07904 87.49848,92.7253 128.98434,141.04224 0.1123,0.1564 -2.09953,1.74447 -2.21182,1.58807 z"
         id="path3758"
         style="opacity:0.8;fill:none;stroke:#000000;stroke-width:3;stroke-linejoin:round;stroke-miterlimit:4;stroke-opacity:1;stroke-dasharray:none;stroke-dashoffset:23.17999964" />
      <path
         inkscape:connector-curvature="0"
         d="m 58.262121,400.13491 c 11.860924,5.77184 23.738363,11.64199 36.459229,15.351 3.794936,1.10648 7.67921,1.87968 11.51881,2.81951 4.25496,0.59694 8.49952,1.27332 12.76487,1.79081 13.75788,1.66917 14.1886,1.28468 28.00248,2.7577 14.74538,1.57235 29.48056,3.40885 44.2035,5.17952 24.53508,3.5685 48.83826,8.7367 73.48082,11.58022 16.01734,1.84826 19.14346,1.71317 35.08165,2.42693 23.60366,0.87581 47.11216,-2.19299 70.6993,-2.11801 4.07159,0.0129 8.14015,0.22316 12.21023,0.33474 9.81209,0.21122 19.52511,1.46343 28.82529,4.67699 4.55421,1.57365 8.69854,3.9523 13.03404,5.99901 10.7171,4.17823 22.40004,4.67067 33.75489,5.2355 14.91907,-0.0506 29.8598,1.01713 44.22399,5.18845 4.02511,1.71267 8.23325,1.32774 12.40449,0.48611 2.87845,-0.71011 6.60659,-1.66592 9.35981,-0.25669 2.27477,3.59284 -2.19163,4.37219 -4.81629,4.52119 -6.19919,0.0948 -10.96965,-4.48699 -15.85631,-7.73878 -4.91129,-3.25482 -10.36591,-6.22672 -14.25469,-10.74523 -1.25839,-1.55836 -4.1442,-3.13667 -5.69625,-4.21811 -2.30046,-1.60292 -4.35918,-3.22763 -7.06709,-4.01873 1.03506,0.0454 2.16304,-0.2947 3.10518,0.13633 1.39938,0.64023 2.37796,1.95403 3.5757,2.92025 1.39763,1.12747 2.77753,2.27824 4.21028,3.36072 5.94544,4.49193 12.17875,8.50578 18.4806,12.46978 4.88677,2.81893 9.75684,5.69335 14.82773,8.17622 0.59501,0.29133 1.25229,0.45842 1.81789,0.80338 0.18651,0.11376 -0.45073,-0.18202 -0.6491,-0.0905 -0.45419,0.2095 -0.78385,0.62152 -1.17577,0.93228 -0.50495,-0.31254 -1.00599,-0.63149 -1.51485,-0.93763 -1.53284,-0.92216 -3.08871,-1.81734 -4.68328,-2.62941 -0.24285,-0.12367 -0.9833,-0.23303 -0.73802,-0.35182 0.47143,-0.22831 1.04704,-0.0342 1.57056,-0.0514 -1.29427,3.54198 -5.41684,6.4277 -8.09453,8.88355 -5.85291,5.36801 -5.26932,4.74703 -11.59081,9.99375 -4.14697,3.04927 -8.03679,6.58128 -12.54387,9.12859 -1.43626,0.81174 -2.6921,-0.36133 -2.30883,-1.91302 0.16602,0.63502 0.33204,1.27005 0.49806,1.90507 -0.10704,0.10361 -1.57237,-1.41006 -1.46534,-1.51368 l 0,0 c 0.98793,0.011 1.97586,0.022 2.96379,0.033 -0.2101,0.86168 -0.13593,1.352 -1.8153,0.13733 -0.20175,-0.14593 0.46846,-0.17951 0.67722,-0.31522 0.83228,-0.54101 1.63843,-1.12183 2.43815,-1.7099 3.74963,-2.75724 5.91015,-4.5203 9.72021,-7.52167 6.27131,-5.12989 12.53284,-10.34628 18.53126,-15.79254 0.32418,-0.29433 0.7002,-0.96719 0.93598,-1.35841 0.53623,-0.54349 0.93051,-1.27979 1.60871,-1.63048 0.38067,-0.19684 6.62957,3.661 7.30374,4.20026 0.18107,0.78109 0.78568,1.579 0.54322,2.34327 -0.18734,0.59051 -1.88838,-0.0296 -3.32643,-0.66822 -5.2324,-2.32372 -10.17416,-5.25411 -15.10757,-8.13827 -6.4281,-3.96981 -12.63782,-8.0655 -18.59711,-12.72227 -0.22538,-0.17612 -7.38392,-5.94343 -7.76475,-6.55194 -0.61134,-0.97684 -0.35576,-2.27712 -0.53365,-3.41567 5.12478,1.41799 9.66589,5.39033 13.53501,8.88549 3.99186,4.20993 9.32296,7.03334 14.07548,10.26984 4.27852,2.85823 8.49285,7.10634 13.87266,7.38043 1.2692,-0.008 3.22839,0.34973 4.10391,-0.77412 -1.6191,-0.9008 -5.61118,0.0191 -7.34483,0.53676 -4.72265,1.12557 -9.54899,1.28012 -14.17854,-0.3784 -14.32246,-3.70014 -29.14737,-4.63174 -43.9,-4.75321 -11.60326,-0.66588 -23.44396,-1.44654 -34.34007,-5.86118 -4.28038,-1.92228 -8.42715,-4.11265 -12.91189,-5.55736 -9.18326,-2.95827 -18.73357,-4.07462 -28.35593,-4.26346 -3.64869,-0.10168 -7.29596,-0.30696 -10.94607,-0.30504 -24.05819,0.0126 -48.01674,3.4494 -72.09854,2.46407 -16.21953,-0.71381 -19.05,-0.55775 -35.35015,-2.42795 -24.62514,-2.82536 -48.91932,-7.92423 -73.39764,-11.71768 -14.67749,-1.86813 -29.37303,-3.72754 -44.08735,-5.28795 -13.12188,-1.39154 -15.03039,-1.17802 -28.10295,-2.87206 -4.33598,-0.56189 -8.64741,-1.29921 -12.97112,-1.94881 -3.89626,-0.99138 -7.839387,-1.81401 -11.688773,-2.97413 -12.698754,-3.82713 -24.557208,-9.77083 -36.230293,-15.94894 -0.12941,-0.0767 0.955836,-1.90689 1.085247,-1.83015 z"
         id="path3760"
         style="opacity:0.8;fill:none;stroke:#000000;stroke-width:3;stroke-linejoin:round;stroke-miterlimit:4;stroke-opacity:1;stroke-dasharray:none;stroke-dashoffset:23.17999964" />
      <path
         inkscape:connector-curvature="0"
         id="path3858"
         d="m 247.2,434.59148 c -13.75,-2.09071 -26.26956,-4.03259 -27.82124,-4.31529 -1.55168,-0.2827 6.04507,-7.71401 16.88167,-16.51401 22.79781,-18.51325 29.17941,-24.9012 34.21185,-34.24588 2.00054,-3.71477 4.10767,-6.70752 4.68253,-6.65057 0.57485,0.0569 16.34519,14.9009 35.04519,32.98656 l 34,32.88303 -36,-0.17128 c -24.47413,-0.11645 -44.00407,-1.38832 -61,-3.97256 z"
         style="opacity:0.8;fill:none;stroke:#000000;stroke-width:0;stroke-linejoin:round;stroke-miterlimit:4;stroke-opacity:1;stroke-dasharray:none;stroke-dashoffset:23.17999964" />
      <path
         inkscape:connector-curvature="0"
         id="path3860"
         d="m 247.2,434.59148 c -13.75,-2.09071 -26.26956,-4.03259 -27.82124,-4.31529 -1.55168,-0.2827 6.04507,-7.71401 16.88167,-16.51401 22.79781,-18.51325 29.17941,-24.9012 34.21185,-34.24588 2.00054,-3.71477 4.10767,-6.70752 4.68253,-6.65057 0.57485,0.0569 16.34519,14.9009 35.04519,32.98656 l 34,32.88303 -36,-0.17128 c -24.47413,-0.11645 -44.00407,-1.38832 -61,-3.97256 z"
         style="opacity:0.8;fill:none;stroke:#000000;stroke-width:0;stroke-linejoin:round;stroke-miterlimit:4;stroke-opacity:1;stroke-dasharray:none;stroke-dashoffset:23.17999964" />
      <path
         inkscape:connector-curvature="0"
         id="path3862"
         d="m 247.2,434.59148 c -13.75,-2.09071 -26.26956,-4.03259 -27.82124,-4.31529 -1.55168,-0.2827 6.04507,-7.71401 16.88167,-16.51401 22.79781,-18.51325 29.17941,-24.9012 34.21185,-34.24588 2.00054,-3.71477 4.10767,-6.70752 4.68253,-6.65057 0.57485,0.0569 16.34519,14.9009 35.04519,32.98656 l 34,32.88303 -36,-0.17128 c -24.47413,-0.11645 -44.00407,-1.38832 -61,-3.97256 z"
         style="opacity:0.8;fill:none;stroke:#000000;stroke-width:0;stroke-linejoin:round;stroke-miterlimit:4;stroke-opacity:1;stroke-dasharray:none;stroke-dashoffset:23.17999964" />
      <path
         inkscape:connector-curvature="0"
         id="path3864"
         d="m 247.2,434.59148 c -13.75,-2.09071 -26.26956,-4.03259 -27.82124,-4.31529 -1.55168,-0.2827 6.04507,-7.71401 16.88167,-16.51401 22.79781,-18.51325 29.17941,-24.9012 34.21185,-34.24588 2.00054,-3.71477 4.10767,-6.70752 4.68253,-6.65057 0.57485,0.0569 16.34519,14.9009 35.04519,32.98656 l 34,32.88303 -36,-0.17128 c -24.47413,-0.11645 -44.00407,-1.38832 -61,-3.97256 z"
         style="opacity:0.8;fill:none;stroke:#000000;stroke-width:0;stroke-linejoin:round;stroke-miterlimit:4;stroke-opacity:1;stroke-dasharray:none;stroke-dashoffset:23.17999964" />
      <path
         inkscape:connector-curvature="0"
         id="path3866"
         d="m 247.2,434.59148 c -13.75,-2.09071 -26.26956,-4.03259 -27.82124,-4.31529 -1.55168,-0.2827 6.04507,-7.71401 16.88167,-16.51401 22.79781,-18.51325 29.17941,-24.9012 34.21185,-34.24588 2.00054,-3.71477 4.10767,-6.70752 4.68253,-6.65057 0.57485,0.0569 16.34519,14.9009 35.04519,32.98656 l 34,32.88303 -36,-0.17128 c -24.47413,-0.11645 -44.00407,-1.38832 -61,-3.97256 z"
         style="opacity:0.8;fill:none;stroke:#000000;stroke-width:0;stroke-linejoin:round;stroke-miterlimit:4;stroke-opacity:1;stroke-dasharray:none;stroke-dashoffset:23.17999964" />
      <path
         inkscape:connector-curvature="0"
         id="path3868"
         d="m 248,434.64074 c -13.2,-2.06158 -25.8,-3.79102 -28,-3.84319 -4.49219,-0.10655 -0.13166,-4.29993 27.1124,-26.07311 9.37446,-7.49198 17.5554,-16.10861 21.54668,-22.69419 l 6.43428,-10.61651 16.45332,16.58775 C 300.59601,397.12475 316.1,412.23751 326,421.58539 l 18,16.99616 -36,-0.0962 c -24.89404,-0.0665 -43.40397,-1.2526 -60,-3.84457 l 0,0 z"
         style="opacity:0.8;fill:#6c5d53;stroke:#000000;stroke-width:0;stroke-linejoin:round;stroke-miterlimit:4;stroke-opacity:1;stroke-dasharray:none;stroke-dashoffset:23.17999964" />
    </g>
  </g>
</svg>
