<?xml version="1.0" encoding="UTF-8" standalone="no"?>
<!-- Created with Inkscape (http://www.inkscape.org/) -->

<svg
   xmlns:osb="http://www.openswatchbook.org/uri/2009/osb"
   xmlns:dc="http://purl.org/dc/elements/1.1/"
   xmlns:cc="http://creativecommons.org/ns#"
   xmlns:rdf="http://www.w3.org/1999/02/22-rdf-syntax-ns#"
   xmlns:svg="http://www.w3.org/2000/svg"
   xmlns="http://www.w3.org/2000/svg"
   xmlns:sodipodi="http://sodipodi.sourceforge.net/DTD/sodipodi-0.dtd"
   xmlns:inkscape="http://www.inkscape.org/namespaces/inkscape"
   width="744.09448819"
   height="1052.3622047"
   id="svg2"
   version="1.1"
   inkscape:version="0.48.4 r9939"
   sodipodi:docname="New document 1">
  <defs
     id="defs4">
    <linearGradient
       id="linearGradient3791"
       osb:paint="solid">
      <stop
         style="stop-color:#ff0000;stop-opacity:1;"
         offset="0"
         id="stop3793" />
    </linearGradient>
    <inkscape:path-effect
       effect="skeletal"
       id="path-effect3019"
       is_visible="true"
       pattern="m 51,61 c 0,-2.76 2.24,-5 5,-5 2.76,0 5,2.24 5,5 0,2.76 -2.24,5 -5,5 -2.76,0 -5,-2.24 -5,-5 z"
       copytype="single_stretched"
       prop_scale="1"
       scale_y_rel="false"
       spacing="0"
       normal_offset="0"
       tang_offset="0"
       prop_units="false"
       vertical_pattern="false"
       fuse_tolerance="0" />
    <inkscape:path-effect
       effect="spiro"
       id="path-effect3017"
       is_visible="true" />
    <inkscape:path-effect
       effect="skeletal"
       id="path-effect3007"
       is_visible="true"
       pattern="m 41,27 c 0,-2.76 2.24,-5 5,-5 2.76,0 5,2.24 5,5 0,2.76 -2.24,5 -5,5 -2.76,0 -5,-2.24 -5,-5 z"
       copytype="single_stretched"
       prop_scale="1"
       scale_y_rel="false"
       spacing="0"
       normal_offset="0"
       tang_offset="0"
       prop_units="false"
       vertical_pattern="false"
       fuse_tolerance="0" />
    <inkscape:path-effect
       effect="spiro"
       id="path-effect3005"
       is_visible="true" />
  </defs>
  <sodipodi:namedview
     id="base"
     pagecolor="#ffffff"
     bordercolor="#666666"
     borderopacity="1.0"
     inkscape:pageopacity="0.0"
     inkscape:pageshadow="2"
     inkscape:zoom="1"
     inkscape:cx="178.04342"
     inkscape:cy="554.26851"
     inkscape:document-units="px"
     inkscape:current-layer="layer1"
     showgrid="false"
     inkscape:window-width="1366"
     inkscape:window-height="744"
     inkscape:window-x="0"
     inkscape:window-y="24"
     inkscape:window-maximized="1" />
  <metadata
     id="metadata7">
    <rdf:RDF>
      <cc:Work
         rdf:about="">
        <dc:format>image/svg+xml</dc:format>
        <dc:type
           rdf:resource="http://purl.org/dc/dcmitype/StillImage" />
        <dc:title></dc:title>
      </cc:Work>
    </rdf:RDF>
  </metadata>
  <g
     inkscape:label="Layer 1"
     inkscape:groupmode="layer"
     id="layer1">
    <path
       sodipodi:type="arc"
       style="fill:#c8b7b7;fill-rule:evenodd;stroke:#000000;stroke-width:1px;stroke-linecap:butt;stroke-linejoin:miter;stroke-opacity:1"
       id="path3001"
       sodipodi:cx="518.57141"
       sodipodi:cy="200.93361"
       sodipodi:rx="115.71429"
       sodipodi:ry="115.71429"
       d="m 634.2857,200.93361 a 115.71429,115.71429 0 1 1 -0.0158,-1.91294 l -115.69847,1.91294 z"
       sodipodi:start="0"
       sodipodi:end="6.266653"
       transform="matrix(1.3786109,0,0,1.3786109,-488.33681,89.924338)" />
    <path
       style="fill:#d40000;fill-rule:evenodd;stroke:none"
       d="m 231,789.36218 c -0.24029,0.0366 -0.73939,-1.31022 -1.17428,-4.03046 -0.4349,-2.72023 -0.79821,-6.84198 -0.21031,-12.18035 0.24526,-2.20403 0.65801,-4.58785 1.20057,-7.13235 0.54256,-2.5445 1.21734,-5.24922 1.88224,-8.10665 0.51233,-2.23567 1.02367,-4.5783 1.40487,-7.01046 0.3812,-2.43215 0.633,-4.95384 0.56007,-7.54279 -0.057,-3.1779 -0.63314,-6.53986 -1.35345,-10.17288 -0.72031,-3.63301 -1.58769,-7.5369 -1.95048,-11.83299 0,-10e-6 0,-10e-6 0,-2e-5 -0.34029,-3.83206 -0.17265,-8.01272 1.17252,-12.21602 1.26785,-3.98924 3.82173,-7.86103 7.7952,-10.46795 2.08737,-1.29479 4.21175,-2.09811 6.10446,-2.79188 1.82175,-0.71943 3.47421,-1.33738 4.63749,-2.24631 1.12509,-0.77905 2.23718,-2.13857 3.7674,-3.63371 1.44856,-1.54655 3.46545,-3.10465 6.23447,-4.00626 1.93461,-0.49621 3.70716,-0.53288 5.19368,-0.39382 10e-6,0 2e-5,1e-5 3e-5,1e-5 1.46158,0.0868 2.66443,0.2488 3.58954,0.17209 1.76686,-0.0748 3.62109,-0.86839 5.14461,-2.07489 1.50383,-1.18742 2.70968,-2.91362 3.54245,-4.84527 1.11492,-2.54274 1.44022,-5.5993 1.34011,-8.78052 -0.11489,-3.10703 -0.77013,-6.37769 -1.50807,-9.8466 -0.73826,-3.37805 -1.5782,-6.96666 -2.03368,-10.85634 -0.4645,-3.80514 -0.42757,-7.92035 0.62862,-12.09192 0.86061,-3.23232 2.10284,-5.74395 2.47263,-7.8269 0.17717,-1.01958 0.26898,-1.93043 0.11137,-2.63484 -0.16018,-0.66715 -0.37811,-1.26356 -0.68149,-1.49046 0,0 0,0 -10e-6,0 -0.2395,-0.50612 -1.48024,-0.78015 -3.14242,-1.44282 -1.76447,-0.45488 -4.12819,-1.28608 -6.60266,-3.20278 -1.93877,-1.74578 -3.19761,-3.8828 -3.77948,-6.08802 -0.58182,-2.15429 -0.72349,-4.22562 -0.60315,-6.10343 0.18084,-3.70192 0.96575,-6.66622 0.75585,-8.8967 -0.0613,-2.16996 -1.00118,-4.54278 -2.19226,-7.05381 -1.2227,-2.47088 -2.87407,-5.06926 -4.42333,-8.09598 -3.10585,-6.21109 -5.04418,-12.88109 -6.08331,-19.73103 -1.03914,-6.84994 -1.17922,-13.87968 -0.74578,-20.76836 0.37459,-6.58568 1.16778,-13.10683 1.98322,-19.58387 0.81544,-6.47703 1.65292,-12.90994 2.06774,-19.32514 0.2856,-4.49092 0.39732,-9.32507 1.18455,-14.41613 0.74159,-5.0601 2.40846,-10.34511 5.64977,-15.10285 3.19773,-4.43324 6.89154,-7.32911 9.1555,-10.23835 10e-6,-1e-5 2e-5,-1e-5 2e-5,-2e-5 3.10492,-3.75988 4.90199,-9.05513 7.04169,-14.72084 1.98096,-5.67772 4.46456,-11.93872 9.08321,-17.46185 0.15817,-0.17873 0.31719,-0.35496 0.47697,-0.5288 2.78263,-3.02737 5.77523,-5.31074 8.42725,-7.38289 2.76483,-2.26159 5.25985,-4.29829 6.73898,-6.61138 1.26889,-1.79193 2.27743,-4.40711 3.89965,-7.32329 1.52505,-3.05719 4.10369,-6.19587 8.04008,-8.34681 2.60022,-1.2038 5.18009,-1.66594 7.50117,-1.64997 2e-5,0 3e-5,0 4e-5,0 2.30304,-0.0193 4.37863,0.21385 6.2281,0.45704 3.53494,0.43881 7.03093,0.71182 10.46804,0.71571 20.90214,0.0394 41.27879,0.0987 61,0.17637 4.01044,0.0139 8.01989,0.21239 12.00167,0.64643 1e-5,0 2e-5,0 3e-5,0 3.96798,0.38953 7.44089,0.95489 10.36417,0.49732 2.50503,-0.36296 4.90239,-1.29663 6.55354,-2.81528 1.33359,-1.09713 2.47492,-2.89355 3.82071,-4.91957 1.30579,-2.0921 2.82738,-4.49053 4.99187,-6.78513 2.91214,-2.89188 6.02716,-4.72516 8.65229,-6.31885 2.57763,-1.71296 4.84702,-3.17797 5.94487,-4.9901 1.64393,-2.08107 2.09909,-5.84532 3.70436,-10.04993 0.75715,-2.17138 1.93801,-4.43491 3.73044,-6.50216 1.83582,-2.14673 4.50425,-3.70979 7.68511,-4.20539 1e-5,-1e-5 2e-5,-1e-5 4e-5,-1e-5 1.63067,-0.16084 2.86721,-0.0696 3.70397,-0.01 4.85475,0.29679 9.89923,-1.25007 14.79836,-3.22301 5.08802,-2.10317 10.1033,-4.87256 15.48851,-7.15439 11.4515,-4.79222 23.08974,-6.82188 34.14494,-7.23585 11.0552,-0.41397 21.53033,0.78883 30.9986,2.75627 3.45794,0.70552 6.64905,1.47304 9.68382,1.82459 3.20251,0.35308 6.25991,0.34456 8.93329,-0.4223 2.63359,-0.81246 5.04073,-2.23887 7.02541,-3.9903 1.98467,-1.75143 3.54748,-3.82841 4.5711,-6.01306 2.12182,-0.319 4.18623,-1.1164 5.91502,-2.23691 1.03126,-0.6129 1.9528,-1.49693 2.88091,-2.47138 0.92812,-0.97446 1.86263,-2.03957 2.88915,-3.05465 2.69835,-2.70338 5.67399,-4.70635 8.60876,-6.13524 2.93478,-1.4289 5.83123,-2.28546 8.50734,-2.73327 3.11248,-0.51912 5.90875,-0.4921 8.27699,-0.22881 2.36824,0.26329 4.31374,0.76286 5.83241,1.2764 1.51866,0.51355 2.61464,1.04102 3.32031,1.44788 0.70567,0.40685 1.02353,0.69293 0.97201,0.8129 -0.0515,0.11997 -0.47134,0.0722 -1.24911,-0.0881 -0.77777,-0.16031 -1.91604,-0.43231 -3.42001,-0.68369 -1.50397,-0.25138 -3.37783,-0.48159 -5.59119,-0.49147 -2.21335,-0.01 -4.7715,0.20088 -7.53675,0.89187 -2.3781,0.59277 -4.9142,1.54805 -7.43809,2.98484 -2.52389,1.43679 -5.0381,3.35685 -7.24703,5.82645 -1.66532,1.88952 -3.3654,4.3842 -6.22994,6.47397 -1.70626,1.19104 -3.81835,1.85732 -6.08498,1.76309 -0.91385,2.7023 -2.45969,5.23537 -4.56356,7.33533 -2.10388,2.09997 -4.76639,3.7673 -7.83993,4.66131 -3.59475,1.10736 -7.41591,1.32285 -11.1254,0.98165 -3.50186,-0.30504 -6.91632,-0.99511 -10.25749,-1.57936 -9.13695,-1.5619 -19.12998,-2.42592 -29.49135,-1.81274 -10.36138,0.61317 -21.09362,2.70198 -31.36511,7.33317 -4.85399,2.15991 -9.8014,5.01451 -15.41194,7.46775 -5.39453,2.41102 -11.56324,4.27865 -18.30119,4.15484 -1.15872,-0.0125 -1.93499,-0.10951 -2.29598,-0.01 0,0 0,0 -10e-6,0 -0.6994,0.0123 -1.58173,0.67884 -2.37633,1.48929 -0.8099,0.85834 -1.40256,2.19729 -1.99201,3.74806 -1.04594,3.12355 -1.73776,7.47147 -4.51175,12.00517 -2.4518,3.5026 -5.58497,5.87734 -8.48799,7.64423 -2.77301,1.83378 -5.32876,3.26121 -6.91485,5.04682 -1.2919,1.29952 -2.40369,3.22214 -3.79196,5.39089 -1.31967,2.18959 -2.97552,4.63829 -5.39546,6.90441 -3.27802,2.898 -7.30752,4.6363 -11.44646,5.18472 -4.63781,0.57961 -8.88803,0.0629 -12.61932,-0.35711 -1e-5,0 -2e-5,0 -3e-5,0 -3.6098,-0.36421 -7.28897,-0.51308 -11.01478,-0.49914 -19.72121,0.0776 -40.09786,0.13695 -61,0.17637 -3.93505,0.004 -7.83724,-0.28109 -11.68251,-0.75231 -1.81861,-0.20911 -3.43466,-0.41253 -4.8422,-0.36785 -10e-6,0 -2e-5,0 -3e-5,0 -1.37424,0.0797 -2.54868,0.20848 -3.27791,0.64294 -1.27858,0.4151 -2.40318,2.18212 -3.70806,4.24181 -1.1917,2.17175 -2.34699,5.0348 -4.35221,8.08809 -2.61324,3.74303 -5.79726,6.53075 -8.79437,8.84718 -2.76132,2.2289 -5.36307,4.14203 -7.2455,6.26244 -0.10809,0.12176 -0.21377,0.24416 -0.31693,0.36731 -3.26931,3.58873 -5.153,8.81888 -7.25961,14.34155 -1.99452,5.66254 -4.32676,11.89094 -8.61549,17.47576 -10e-6,1e-5 -2e-5,2e-5 -2e-5,3e-5 -3.33375,4.16559 -6.9082,6.88365 -8.84446,9.7616 -2.15962,2.93358 -3.29167,6.8444 -4.02114,10.96262 -0.70084,4.19339 -0.80048,8.73881 -1.14454,13.5184 -0.48475,6.8292 -1.3758,13.44877 -2.23,19.90326 -0.85419,6.4545 -1.67131,12.74395 -2.0568,18.91026 -0.3599,6.42133 -0.30514,12.80744 0.50764,18.86194 0.81277,6.0545 2.38373,11.7773 5.00103,16.91614 1.25287,2.53037 2.89602,5.18661 4.37861,8.23109 1.55052,3.0784 2.75959,6.65624 3.0058,10.61912 0.10662,4.08174 -0.71588,7.31606 -0.87394,9.83235 -0.051,1.26652 -0.038,2.37416 0.22568,3.22809 0.27019,0.82622 0.60038,1.55019 1.02148,1.85141 0.38121,0.56038 1.74338,0.85887 3.53916,1.56007 1.93375,0.50499 4.38392,1.58142 6.71576,3.79433 1e-5,2e-5 2e-5,3e-5 3e-5,4e-5 1.63929,1.82737 2.57574,3.93999 2.86412,6.04184 0.29465,2.08733 0.15385,4.03467 -0.24977,5.75951 -0.80648,3.47521 -2.11689,6.08621 -2.71188,8.24641 -0.81527,2.76162 -0.8407,5.87987 -0.56581,9.05433 0.30177,3.25842 1.03976,6.61315 1.72088,10.10216 0.71855,3.57769 1.35906,7.32501 1.46267,11.21925 0.1246,4.01898 -0.50218,8.18229 -2.19076,12.04888 -1.30421,2.95389 -3.31658,5.60491 -5.9142,7.62765 -2.67873,2.08256 -5.96675,3.31575 -9.39874,3.45219 -1.76969,0.0328 -3.23706,-0.16662 -4.42819,-0.28484 0,0 -10e-6,0 -2e-5,0 -1.20312,-0.0688 -2.15896,-0.14749 -2.78854,0.0631 -0.96971,0.12896 -2.05176,1.08431 -3.32971,2.17973 -1.257,1.20566 -2.69535,2.76872 -4.66842,4.1803 -2.17584,1.45207 -4.35416,2.27726 -6.28161,2.91437 -1.95633,0.69891 -3.68028,1.24012 -4.97644,2.04744 -2.54308,1.44166 -4.38811,4.16 -5.48012,7.02983 -1.16272,3.08606 -1.38006,6.52967 -1.24846,9.90249 0,0 0,10e-6 0,10e-6 0.16715,3.79505 0.86851,7.57083 1.44056,11.30898 0.57205,3.73815 1.0177,7.43835 0.95181,11.06883 -0.0802,2.96112 -0.48645,5.72377 -1.02233,8.30678 -0.53588,2.58301 -1.20214,4.9864 -1.86877,7.22731 -0.84287,2.86765 -1.68166,5.49608 -2.38442,7.93128 -0.70276,2.4352 -1.27191,4.67668 -1.67673,6.74238 -0.98569,4.99702 -1.0941,8.97161 -1.13095,11.65352 -0.0368,2.68191 -0.0134,4.09909 -0.25364,4.13567 z"
       id="path3003"
       inkscape:path-effect="#path-effect3005;#path-effect3007"
       inkscape:original-d="m 231,789.36218 c 0,-5.33333 -0.20498,-10.6706 0,-16 0.40449,-10.51682 4.8492,-19.64279 6,-30 1.59199,-14.32789 -2.75492,-28.42888 5,-42 1.99062,-3.48359 8.02667,-3.81067 11,-5 6.07834,-2.43133 4.14812,-3.11849 9,-7 2.20702,-1.76561 6.37581,0.5414 8,0 1.76281,-0.5876 11.90209,-8.51044 12,-9 2.61595,-13.07976 -1,-28.90076 -1,-42 0,-1.19315 1.75203,-15.74932 1,-16 -5.30564,-1.76854 -6.94039,2.13909 -10,-5 -2.26641,-5.28829 -0.63985,-12.55938 -2,-18 -1.45901,-5.83603 -6.04083,-11.24498 -7,-17 -5.03526,-30.21156 -9.73331,-46.06676 -2,-77 1.73834,-6.95336 2.3168,-21.10687 6,-27 2.3768,-3.80288 6.41384,-6.33627 9,-10 6.69843,-9.48944 9.51919,-22.27879 16,-32 4.22036,-6.33054 11.40024,-8.10035 16,-15 5.64251,-8.46376 3.39695,-9.04771 10,-14 3.03814,-2.2786 17.74098,0 22,0 20.33333,0 40.66667,0 61,0 6.82728,0 16.22444,3.25852 23,1 2.67608,-0.89202 6.70659,-2.47106 9,-4 2.21013,-1.47342 5.88214,-9.32754 9,-12 4.87393,-4.17765 10.94406,-6.93007 15,-12 3.27462,-4.09327 9.06583,-16.06583 12,-19 0.70711,-0.7071 2.04601,0.29983 3,0 10.76036,-3.38183 21.32404,-7.36047 32,-11 20.53469,-7.00046 41.51614,-5 63,-5 5.64815,0 14.52874,3.18851 20,1 4.58288,-1.83315 8.16224,-8.12168 12,-11 0.83308,-4.7235 4.19225,-0.91535 6,-2 2.42536,-1.45521 3.69841,-4.35601 6,-6 9.80573,-7.00409 22.49101,-7 34,-7"
       inkscape:connector-curvature="0" />
    <path
       style="fill:#800000;fill-rule:evenodd;stroke:none"
       d="m 392,608.36218 c 0.003,0.25558 -0.71102,0.53159 -2.12254,0.73015 -1.41152,0.19857 -3.52477,0.31591 -6.27043,0.0976 -2.74566,-0.21828 -6.13019,-0.77679 -9.95114,-2.02276 -3.82094,-1.24598 -8.08483,-3.18424 -12.35715,-6.18337 -3.83136,-2.69423 -7.63546,-6.23602 -10.9616,-10.69138 -3.32613,-4.45535 -6.17483,-9.82789 -7.94292,-15.9824 -0.67518,-2.25898 -1.15772,-4.48866 -1.70592,-6.53273 -0.54821,-2.04406 -1.16195,-3.90251 -2.16765,-5.38965 -0.92255,-1.52818 -2.62313,-3.31169 -4.19281,-6.06689 -1.99464,-3.80274 -2.72955,-7.91636 -2.77223,-11.72657 -0.1089,-3.63827 0.16529,-7.01219 -0.0291,-10.03437 -0.13973,-2.75672 -0.70487,-5.67633 -1.33732,-8.8276 -0.63244,-3.15127 -1.33202,-6.53429 -1.67031,-10.2227 -0.34396,-3.54968 -0.21397,-7.39481 0.82474,-11.31327 1.01266,-3.86746 3.16153,-7.63858 6.55048,-10.57081 3.76033,-2.9724 7.9542,-4.44446 11.72486,-5.22272 3.6366,-0.89194 6.90315,-1.37854 9.34817,-2.56818 1.85498,-0.80028 3.91425,-2.30735 6.57963,-3.81157 4.79599,-2.65874 9.84534,-4.39293 14.84217,-5.72938 2.54338,-0.68025 5.04886,-1.25318 7.47716,-1.79706 9.09428,-2.12704 18.35467,-4.27885 27.81381,-4.96824 9.99104,-0.76448 20.22244,0.46397 29.25094,4.53649 3.10777,1.45059 5.87288,3.11176 8.45704,4.71357 2.58416,1.60182 4.98745,3.1442 7.35214,4.39847 2.47111,1.29493 4.88689,2.34648 7.26324,2.88431 2.44436,0.5442 4.86535,0.68455 6.98065,0.18013 2.45704,-0.46325 5.08989,-2.05412 8.17803,-3.5071 7.06217,-3.41643 14.26807,-5.38681 21.08515,-6.26541 6.81707,-0.8786 13.24734,-0.66778 18.99866,0.23352 6.32972,0.99491 11.80908,2.80598 16.35759,4.83547 4.5485,2.02949 8.17386,4.27725 10.95193,6.30677 2.77806,2.02952 4.71686,3.84087 5.9291,5.15862 1.21225,1.31775 1.70434,2.14138 1.51564,2.35902 -0.1887,0.21764 -1.05019,-0.17766 -2.56927,-1.03741 -1.51908,-0.85975 -3.70248,-2.18233 -6.61142,-3.68624 -2.90895,-1.50392 -6.55149,-3.18895 -10.9523,-4.65342 -4.40081,-1.46448 -9.56734,-2.70868 -15.37003,-3.20954 -5.27182,-0.45772 -11.08215,-0.29219 -17.15413,0.81293 -6.07198,1.10511 -12.40782,3.15121 -18.50478,6.40167 -2.65051,1.45443 -5.74563,3.34519 -9.82197,4.4929 -3.60528,0.90613 -7.34123,0.89691 -10.86496,0.15189 -3.39536,-0.70897 -6.58745,-1.94505 -9.53559,-3.43655 -5.6552,-2.83091 -10.53221,-6.39448 -15.54638,-8.53886 -7.17696,-3.20868 -15.80881,-3.98356 -24.65461,-3.33533 -8.41909,0.65143 -17.12771,2.77817 -26.28064,4.90358 -2.42901,0.5881 -4.83489,1.15069 -7.17548,1.76439 -4.59843,1.20569 -8.85723,2.59395 -12.50519,4.70917 -2.04518,1.15899 -4.40004,2.79972 -7.42037,4.18843 -4.109,1.75309 -7.96684,2.40731 -11.20239,3.10054 -3.23799,0.8384 -6.06858,1.57898 -7.72458,3.10856 -1.6469,1.25351 -2.81814,3.39873 -3.54619,5.69861 -0.74268,2.39299 -0.82988,5.13699 -0.66723,7.96778 0.18929,2.95609 0.78301,6.04107 1.34654,9.27079 0.56352,3.22972 1.09667,6.60412 1.23447,10.12844 0.11012,3.86961 -0.2597,7.27511 -0.25647,10.2836 0.074,3.10602 0.33074,5.91041 1.45512,7.95545 0.73325,1.5625 2.35166,3.37627 3.8072,5.93312 1.37243,2.59796 2.1688,5.14019 2.74827,7.5179 0.57947,2.37772 0.94196,4.59102 1.37816,6.5597 1.2396,5.28676 3.43817,10.05626 6.09111,14.11368 2.65294,4.05741 5.76146,7.40588 8.95124,10.05382 3.55219,2.9543 7.2111,5.06176 10.55438,6.58685 3.34329,1.52509 6.37752,2.47238 8.88383,3.1225 2.50632,0.65012 4.49092,1.00815 5.84093,1.29824 1.35001,0.29008 2.06944,0.51723 2.07273,0.77281 z"
       id="path3015"
       inkscape:path-effect="#path-effect3017;#path-effect3019"
       inkscape:original-d="m 392,608.36218 c -17.13149,-5.99891 -36.61264,-18.57212 -46,-35 -1.92996,-3.37743 -2.31041,-9.2829 -4,-13 -0.99466,-2.18825 -3.10729,-3.76822 -4,-6 -2.2512,-5.62801 0.27584,-13.17248 -2,-20 -3.7192,-11.15761 -7.69016,-26.30984 3,-37 5.15244,-5.15243 13.64402,-5.184 20,-7 2.58402,-0.73829 4.41598,-3.26171 7,-4 7.03117,-2.0089 13.78587,-4.83576 21,-7 16.24279,-4.87283 37.33355,-2.38887 54,-1 12.15274,1.01273 21.31446,9.40322 33,12 7.76738,1.72609 4.94136,-3.04502 9,-4 12.76069,-3.00251 63.44189,-0.5581 73,9"
       inkscape:connector-curvature="0" />
    <path
       sodipodi:type="arc"
       style="fill:none;stroke:#e1f000;stroke-width:3;stroke-linecap:butt;stroke-linejoin:miter;stroke-miterlimit:4;stroke-opacity:1;stroke-dasharray:none"
       id="path3021"
       sodipodi:cx="425"
       sodipodi:cy="683.86218"
       sodipodi:rx="87"
       sodipodi:ry="83.5"
       d="m 512,683.86218 a 87,83.5 0 1 1 -0.0119,-1.38038 L 425,683.86218 z"
       sodipodi:start="0"
       sodipodi:end="6.266653"
       transform="translate(-125,-229)" />
    <path
       sodipodi:type="arc"
       style="fill:none;stroke:#f3fb00;stroke-width:2.9000001;stroke-linecap:butt;stroke-linejoin:miter;stroke-miterlimit:4;stroke-opacity:1;stroke-dasharray:none"
       id="path3799"
       sodipodi:cx="127.5"
       sodipodi:cy="656.86218"
       sodipodi:rx="38.5"
       sodipodi:ry="31.5"
       d="m 166,656.86218 a 38.5,31.5 0 1 1 -0.005,-0.52074 L 127.5,656.86218 z"
       sodipodi:start="0"
       sodipodi:end="6.266653"
       transform="matrix(0.82478098,0,0,0.82478098,221.34043,-47.90525)" />
  </g>
</svg>
